<svg width="30" height="30" viewBox="0 0 30 30" fill="none" xmlns="http://www.w3.org/2000/svg">
<circle cx="15.0002" cy="14.6389" r="13.4543" stroke="#F0F0F0" stroke-width="2"/>
<path d="M14.2929 20.8897C14.6834 21.2802 15.3166 21.2802 15.7071 20.8897L22.0711 14.5258C22.4616 14.1352 22.4616 13.5021 22.0711 13.1116C21.6805 12.721 21.0474 12.721 20.6569 13.1116L15 18.7684L9.34315 13.1115C8.95262 12.721 8.31946 12.721 7.92894 13.1115C7.53841 13.5021 7.53841 14.1352 7.92893 14.5258L14.2929 20.8897ZM14 18.981L14 20.1826L16 20.1826L16 18.981L14 18.981Z" fill="#F0F0F0"/>
<path d="M14.4697 16.1692C14.7626 16.4621 15.2374 16.4621 15.5303 16.1692L20.3033 11.3963C20.5962 11.1034 20.5962 10.6285 20.3033 10.3356C20.0104 10.0427 19.5355 10.0427 19.2426 10.3356L15 14.5783L10.7574 10.3356C10.4645 10.0427 9.98959 10.0427 9.6967 10.3356C9.40381 10.6285 9.40381 11.1034 9.6967 11.3963L14.4697 16.1692ZM14.25 14.6389L14.25 15.6389L15.75 15.6389L15.75 14.6389L14.25 14.6389Z" fill="#F0F0F0"/>
</svg>
